<svg width="500" height="500" viewBox="0 0 500 500" fill="none" xmlns="http://www.w3.org/2000/svg">
<rect width="500" height="500" rx="250" fill="black"/>
<path d="M166.475 414.068C166.132 414.326 166.132 414.326 165.103 415.097C163.56 416.212 163.474 416.212 163.217 416.298C162.188 416.555 161.158 416.212 161.158 416.212C161.158 416.212 161.416 416.212 161.501 416.212C161.501 416.041 160.044 415.526 159.186 414.497C158.414 413.468 158.329 412.267 158.329 411.581C158.329 409.438 189.972 331.228 192.288 325.568C194.603 319.908 196.747 314.763 197.519 313.305C198.033 312.276 199.749 308.76 198.291 306.187C197.862 305.33 197.262 304.815 197.004 304.644C195.032 303.1 192.459 303.272 191.773 303.358C188.257 303.615 164.503 303.358 131.23 303.186C131.058 303.186 130.372 303.186 129.858 302.586C129.6 302.328 129.429 301.985 129.343 301.814C129.086 301.299 129 300.785 129 300.528V299.584C129 299.584 129 299.155 129.257 298.727C129.686 297.869 165.532 237.24 175.908 219.66C186.113 220.003 270.583 219.66 271.012 219.831C271.355 220.003 271.526 220.26 272.127 221.203C272.384 221.546 272.641 222.061 272.984 222.575C272.984 222.833 273.07 223.262 273.156 223.69C273.156 224.376 273.156 224.805 273.156 224.977C273.156 225.577 253.861 258.164 252.746 260.48C252.145 261.68 251.802 262.538 251.888 263.653C251.888 264.51 252.231 265.11 252.317 265.282C252.488 265.539 252.917 266.225 253.775 266.654C254.461 266.997 320.664 266.911 322.551 266.997C324.009 266.997 323.923 267.083 324.609 266.997C325.209 266.997 325.552 266.911 326.067 266.997C326.582 267.169 326.925 267.512 327.182 267.769C327.611 268.198 327.868 268.712 328.039 269.055C328.211 269.398 328.725 270.77 328.039 272.485C327.696 273.429 288.163 308.16 248.201 342.977C207.724 378.308 166.99 413.811 166.475 414.154V414.068ZM276.5 253.876C276.157 253.876 275.214 253.619 274.442 252.676C273.499 251.561 273.499 250.36 273.499 250.017C273.756 248.731 288.077 224.805 289.792 221.804C290.307 221.375 292.022 216.916 291.336 215.629C291.079 215.2 290.736 214.772 289.363 213.914C288.42 213.314 281.817 210.741 279.673 209.884C278.129 209.283 265.438 202.852 260.464 200.022C251.802 194.876 238.768 183.985 234.051 179.44C229.763 175.238 224.189 169.15 221.273 165.033C218.872 161.689 206.352 141.022 204.637 137.163C202.493 132.36 195.975 109.464 195.461 107.491C194.517 103.461 193.403 95.0565 192.974 89.3109C192.974 89.1394 192.888 77.8196 193.403 76.1045C193.831 74.8181 194.26 73.8748 194.603 73.2745C195.032 73.1888 195.804 72.9315 196.747 73.0173C199.32 73.0173 201.206 74.4751 201.807 74.9896C205.923 78.0769 249.83 106.805 295.281 136.562C346.82 170.264 400.503 205.253 400.932 205.682C401.532 206.282 402.047 206.882 402.647 207.74C403.076 208.34 403.59 209.112 403.848 210.141C403.848 210.312 404.191 217.43 403.848 218.802C403.59 219.66 403.505 220.089 403.162 220.689C402.733 221.375 371.346 247.445 366.887 252.333C366.63 252.676 365.772 253.619 364.4 254.048C363.714 254.305 363.114 254.305 361.313 254.305C360.284 254.305 359.254 254.305 358.225 254.305C355.91 254.305 322.551 254.134 276.414 253.876H276.5ZM352.651 211.256C353.337 210.913 353.766 210.741 354.366 210.312C354.538 210.227 354.795 209.969 355.31 209.541C355.739 209.112 356.082 208.855 356.425 208.512C356.596 208.34 356.939 207.997 357.282 207.654C357.625 207.311 357.882 206.968 358.225 206.625C358.483 206.368 358.654 206.11 358.74 205.939C359.083 205.167 359.169 204.481 359.169 204.052C359.169 203.538 359.169 203.195 358.997 202.594C358.826 201.737 358.654 201.394 358.568 201.308C358.568 201.308 358.397 201.051 357.882 200.622C357.539 200.279 357.025 199.85 356.082 199.078C355.91 198.993 356.082 199.078 355.481 198.65C354.624 197.964 354.366 197.792 353.938 197.449C353.595 197.192 353.252 196.934 352.651 196.42C351.708 195.734 351.794 195.82 350.679 194.962C350.079 194.448 349.821 194.362 349.478 194.105C348.621 193.504 348.278 193.333 348.106 193.247C347.506 192.99 347.077 192.818 346.648 192.818C346.305 192.818 345.962 192.99 345.619 193.075C345.191 193.247 344.848 193.418 344.59 193.676C344.161 193.933 343.818 194.19 343.39 194.619C342.875 195.048 342.532 195.391 342.189 195.648C342.018 195.82 341.675 196.077 341.332 196.506C341.16 196.677 340.988 197.02 340.731 197.363C340.645 197.535 340.302 198.049 340.131 198.821C339.874 199.679 339.788 200.45 339.788 201.137C339.788 201.737 339.788 202.166 339.788 202.423C339.788 203.109 339.788 203.538 339.959 204.052C340.045 204.481 340.217 204.996 340.645 205.682C340.817 205.939 341.074 206.282 341.503 206.711C341.846 207.054 341.932 207.139 342.704 207.997C343.304 208.597 343.475 208.855 343.904 209.283C344.333 209.712 344.59 209.969 344.848 210.141C345.534 210.57 346.477 210.827 346.563 210.913C347.763 211.256 348.707 211.427 348.792 211.427C349.993 211.599 350.593 211.685 351.108 211.599C351.365 211.599 351.708 211.341 352.394 211.084L352.651 211.256Z" fill="white"/>
</svg>
